<svg width="112" height="36" viewBox="0 0 112 36" fill="none" xmlns="http://www.w3.org/2000/svg">
<g clip-path="url(#clip0_4272_16417)">
<path d="M28.9581 32.4555H7.05188C6.70564 32.4548 6.3599 32.4292 6.01733 32.3789C5.78886 32.3464 5.56231 32.3014 5.3387 32.2443C5.11517 32.1871 4.89427 32.12 4.67667 32.0433C4.34981 31.9276 4.03231 31.7871 3.72695 31.6229C3.52415 31.5131 3.32632 31.3943 3.13407 31.2669C2.94177 31.1392 2.75619 31.0016 2.57807 30.8548C2.04111 30.4157 1.57277 29.8989 1.18853 29.3214C0.412875 28.1621 -0.000807974 26.7985 1.68261e-06 25.4036V10.5954C-0.000881481 9.31823 0.345915 8.06492 1.0032 6.96987C1.41893 6.27504 1.95175 5.65737 2.57807 5.1442C2.84611 4.92491 3.1296 4.72523 3.42636 4.54671C3.6249 4.42894 3.82857 4.32003 4.03676 4.2203C4.35031 4.07325 4.67383 3.94846 5.00492 3.84687C5.22607 3.78099 5.45004 3.725 5.67617 3.67906C5.90224 3.63299 6.13063 3.59913 6.36034 3.57763C6.59008 3.55394 6.82092 3.54255 7.05188 3.54351H28.9581C29.3043 3.54411 29.6501 3.56968 29.9926 3.62004C30.2211 3.65261 30.4476 3.69755 30.6712 3.75466C30.8951 3.81193 31.1163 3.879 31.3342 3.95567C31.8777 4.15097 32.3954 4.41167 32.8759 4.73204C33.2605 4.98794 33.6185 5.28169 33.9445 5.60892C34.7654 6.42836 35.3708 7.43821 35.7066 8.54843C35.7723 8.76964 35.8282 8.9936 35.8744 9.21968C35.9206 9.44573 35.9545 9.67412 35.9758 9.90385C35.9996 10.1336 36.0109 10.3644 36.0099 10.5954V25.4064C36.0094 25.7526 35.9838 26.0984 35.9334 26.4409C35.9009 26.6694 35.856 26.8959 35.7988 27.1195C35.6848 27.5672 35.5289 28.0031 35.3332 28.4215C35.1824 28.7332 35.0114 29.0347 34.8214 29.3242C34.6941 29.5165 34.5565 29.7018 34.4093 29.8793C33.9697 30.4158 33.4529 30.884 32.8759 31.2688C32.6834 31.3963 32.4853 31.5151 32.2821 31.6247C32.0783 31.7328 31.8697 31.8315 31.6569 31.9207C31.3374 32.0546 31.0078 32.1631 30.6712 32.2452C30.4477 32.3025 30.2211 32.3474 29.9926 32.3799C29.7644 32.4148 29.5345 32.4376 29.3038 32.4481C29.1886 32.4536 29.0733 32.4564 28.9581 32.4564V32.4555Z" fill="white"/>
<path d="M0 10.3752V14.0569H36.0099V10.3752C36.01 9.9829 35.9757 9.59138 35.9076 9.20508H0.102348C0.0351114 9.5915 0.0008719 9.98294 0 10.3752Z" fill="#004BBC"/>
<path d="M32.8861 19.8935H10.4312C10.2811 19.8978 10.1315 19.8721 9.99143 19.8179C9.85217 19.7618 9.72482 19.6798 9.61615 19.5763C9.56208 19.5245 9.51384 19.467 9.47231 19.4048C9.40786 19.3123 9.35838 19.2102 9.3257 19.1023C9.25829 18.8865 9.25829 18.6552 9.3257 18.4394C9.36898 18.2953 9.44183 18.1618 9.53962 18.0475C9.58744 17.9897 9.64157 17.9375 9.70098 17.8917C9.84851 17.7749 10.0228 17.6966 10.2081 17.6639C10.2818 17.6511 10.3565 17.6459 10.4312 17.6483H32.8861C32.9583 17.6512 33.0302 17.6605 33.1009 17.6759C33.1713 17.691 33.24 17.7135 33.3056 17.7432C33.3723 17.7712 33.4357 17.8065 33.4946 17.8483C33.5828 17.9113 33.6621 17.9857 33.7307 18.0696C33.7979 18.1544 33.8532 18.2482 33.8948 18.3481C33.9343 18.449 33.9601 18.5547 33.9713 18.6625C33.9844 18.8068 33.9703 18.9522 33.9298 19.0913C33.9088 19.1602 33.8816 19.2272 33.8487 19.2914C33.7309 19.5177 33.5393 19.697 33.3056 19.7994C33.2724 19.8132 33.2392 19.8271 33.2042 19.8381C33.1356 19.8599 33.0653 19.8757 32.9939 19.8852C32.9581 19.8898 32.9221 19.8928 32.8861 19.8944V19.8935Z" fill="#5D9CF9"/>
<path d="M29.8065 25.1758L28.7784 28.261C28.7397 28.3754 28.6749 28.4792 28.5891 28.5642C28.5033 28.6492 28.3989 28.713 28.2841 28.7506C28.2079 28.7767 28.1277 28.7895 28.0472 28.7884H23.5033C23.3813 28.7891 23.261 28.76 23.1529 28.7036C23.0979 28.6768 23.0467 28.6427 23.0008 28.6022C22.9542 28.5632 22.9129 28.5183 22.8781 28.4685C22.842 28.4192 22.8123 28.3656 22.7896 28.309C22.7541 28.2248 22.735 28.1347 22.7334 28.0434C22.7302 27.9521 22.7433 27.8609 22.7721 27.7742L23.8002 24.6899C23.8388 24.5753 23.9035 24.4714 23.9893 24.3862C24.0751 24.301 24.1796 24.2371 24.2944 24.1994C24.371 24.1748 24.4509 24.1623 24.5314 24.1625H29.0753C29.1972 24.1618 29.3175 24.1909 29.4256 24.2473C29.4807 24.2741 29.5319 24.3082 29.5778 24.3487C29.6244 24.3877 29.6656 24.4326 29.7004 24.4824C29.7365 24.5317 29.7662 24.5853 29.7889 24.642C29.8244 24.7261 29.8435 24.8162 29.8452 24.9075C29.8483 24.9988 29.8352 25.09 29.8065 25.1767V25.1758Z" fill="#EC532B"/>
</g>
<path d="M63.2329 23.26C63.2329 26.984 60.6849 29 57.1289 29H48.7849V9.064H56.7929C60.6849 9.064 62.9529 11.248 62.9529 14.664C62.9529 16.876 61.4969 18.304 60.4889 18.78C61.6929 19.34 63.2329 20.6 63.2329 23.26ZM59.3409 23.064C59.3409 21.72 58.5009 20.628 56.7369 20.628H52.6769V25.528H56.7369C58.5009 25.528 59.3409 24.408 59.3409 23.064ZM59.0609 14.832C59.0609 13.46 58.1369 12.536 56.4849 12.536H52.6769V17.128H56.4849C58.1369 17.128 59.0609 16.204 59.0609 14.832ZM77.9666 29H74.4106V27.74C73.4306 28.72 72.5066 29.14 70.8266 29.14C69.1746 29.14 67.9706 28.72 67.1026 27.852C66.3186 27.04 65.8986 25.864 65.8986 24.576C65.8986 22.252 67.4946 20.348 70.8826 20.348H74.3266V19.62C74.3266 18.024 73.5426 17.324 71.6106 17.324C70.2106 17.324 69.5666 17.66 68.8106 18.528L66.4866 16.26C67.9146 14.692 69.3146 14.244 71.7506 14.244C75.8386 14.244 77.9666 15.98 77.9666 19.396V29ZM74.3266 23.624V22.84H71.4426C70.1266 22.84 69.3986 23.456 69.3986 24.492C69.3986 25.5 70.0706 26.172 71.4986 26.172C72.5066 26.172 73.1506 26.088 73.7946 25.472C74.1866 25.108 74.3266 24.52 74.3266 23.624ZM94.0157 29H90.3757V20.18C90.3757 18.192 89.1157 17.52 87.9677 17.52C86.8197 17.52 85.5317 18.192 85.5317 20.18V29H81.8917V14.412H85.4477V15.756C86.3997 14.748 87.7437 14.244 89.0877 14.244C90.5437 14.244 91.7197 14.72 92.5317 15.532C93.7077 16.708 94.0157 18.08 94.0157 19.676V29ZM111.214 29H106.706L103.122 22.924L101.582 24.66V29H97.9424V9.064H101.582V20.376L106.426 14.412H110.822L105.614 20.292L111.214 29Z" fill="white" fill-opacity="0.95"/>
<defs>
<clipPath id="clip0_4272_16417">
<rect width="36" height="36" fill="white"/>
</clipPath>
</defs>
</svg>
