<svg width="153" height="37" viewBox="0 0 153 37" fill="none" xmlns="http://www.w3.org/2000/svg">
<g clip-path="url(#clip0_2289_41633)">
<path d="M12.7045 1.24519C14.8476 0.545076 17.1272 0.254786 19.3812 0.399931C22.6854 0.579228 25.9128 1.74893 28.6022 3.66996C28.8925 3.88341 29.2084 4.07979 29.456 4.353C29.8829 4.83966 30.0537 5.53124 29.9 6.16304C29.7463 6.84608 29.2084 7.42666 28.5424 7.63157C27.8936 7.83648 27.1508 7.69987 26.6299 7.26444C24.6235 5.71907 22.1817 4.74575 19.663 4.50668C18.7409 4.40423 17.8017 4.40423 16.8796 4.50668C14.2243 4.77136 11.6544 5.8386 9.5882 7.53765C7.25734 9.44162 5.55829 12.1225 4.89233 15.0596C4.27759 17.7234 4.46543 20.5751 5.45583 23.1279C6.49746 25.843 8.43557 28.1909 10.8774 29.7619C12.7045 30.9316 14.8134 31.6574 16.965 31.8623C17.8017 31.9647 18.6555 31.9647 19.4837 31.8708C22.0877 31.6488 24.6064 30.6499 26.6726 29.0533C27.1934 28.6435 27.9362 28.5239 28.5681 28.7374C29.4389 29.0362 30.0622 29.9668 29.9512 30.8889C29.9 31.4268 29.6182 31.9391 29.1913 32.2635C27.552 33.5442 25.6908 34.5261 23.71 35.1579C21.1571 35.9776 18.4079 36.191 15.7526 35.8239C12.807 35.414 9.9724 34.2358 7.59886 32.4428C5.29361 30.7182 3.41526 28.4215 2.17726 25.8174C0.964872 23.2646 0.375753 20.4129 0.478209 17.5868C0.572126 14.1119 1.72475 10.6796 3.75678 7.85356C5.94249 4.7799 9.11007 2.41489 12.7045 1.24519Z" fill="#002CB8" stroke="#007CFF" stroke-width="0.00800432"/>
<path opacity="0.4" d="M16.8794 4.50665C17.8015 4.4042 18.7407 4.4042 19.6628 4.50665C18.7321 4.48104 17.81 4.48104 16.8794 4.50665Z" fill="#001934" stroke="#001934" stroke-width="0.00800432"/>
<path d="M37.6864 6.09459C38.5744 5.82991 39.616 6.24827 40.0429 7.08499C42.092 11.0893 42.9885 15.6656 42.6214 20.148C42.3652 23.3412 41.4858 26.4917 40.0088 29.3349C39.4709 30.3509 38.028 30.6753 37.0973 30.0094C36.235 29.4544 35.9532 28.2164 36.4655 27.3199C39.3172 21.719 39.3428 14.7777 36.5253 9.15971C36.2691 8.69866 36.1325 8.15223 36.2606 7.63142C36.4057 6.90569 36.9778 6.29096 37.6864 6.09459Z" fill="#6FBAF7" stroke="#6FBAF7" stroke-width="0.00800432"/>
<path d="M136.761 6.64097C136.855 6.2653 137.23 5.98354 137.632 6.00062C138.4 6.00062 139.168 5.99208 139.937 6.00062C140.381 5.98354 140.791 6.37629 140.791 6.82026C140.808 9.07428 140.782 11.3283 140.799 13.5738C141.918 12.5663 143.369 11.9857 144.855 11.8406C146.537 11.6698 148.313 11.9601 149.738 12.9078C151.523 14.069 152.505 16.1779 152.667 18.2526C152.718 20.2505 152.684 22.2483 152.693 24.2462C152.684 25.6977 152.71 27.1577 152.675 28.6091C152.564 28.9762 152.189 29.2153 151.813 29.1982C151.07 29.1982 150.319 29.2068 149.576 29.1982C149.175 29.2153 148.799 28.9165 148.714 28.5323C148.722 25.9367 148.714 23.3412 148.714 20.7457C148.714 20.2248 148.731 19.704 148.68 19.1832C148.577 17.9111 148.099 16.5621 147.023 15.7851C146.152 15.1362 144.991 14.9911 143.941 15.1704C143.122 15.3155 142.353 15.751 141.824 16.3998C141.089 17.3049 140.808 18.4916 140.799 19.6357C140.791 22.5386 140.799 25.4501 140.791 28.353C140.799 28.7799 140.441 29.1641 140.014 29.1897C139.416 29.2153 138.827 29.1897 138.229 29.1982C137.948 29.1982 137.674 29.2153 137.401 29.1726C137.085 29.1043 136.829 28.8396 136.761 28.5323C136.761 21.2323 136.761 13.9409 136.761 6.64097Z" fill="white"/>
<path opacity="0.52" d="M136.709 6.99117C136.718 6.88018 136.735 6.76064 136.761 6.64111C136.761 13.9411 136.761 21.2325 136.761 28.5324C136.684 28.1567 136.718 27.7811 136.718 27.4054C136.709 20.6007 136.727 13.7959 136.709 6.99117Z" fill="#000B31" stroke="#000B31" stroke-width="0.00800432"/>
<path d="M12.4313 8.49389C16.0514 6.30817 20.9436 6.36794 24.4613 8.75003C25.3321 9.39037 25.5114 10.7564 24.8369 11.6017C24.2307 12.4299 22.9757 12.6775 22.1133 12.1225C20.7473 11.2516 19.0909 10.876 17.4858 11.0638C15.8806 11.2346 14.3438 11.9774 13.2168 13.13C12.0898 14.2485 11.3555 15.7511 11.1762 17.3307C11.014 18.6114 11.2274 19.9347 11.7568 21.113C12.4569 22.6669 13.7291 23.9561 15.283 24.6733C16.871 25.4246 18.7323 25.5442 20.4057 25.0233C22.6427 24.3403 24.4954 22.4876 25.1358 20.2421C23.5306 20.2506 21.9255 20.2421 20.3204 20.2421C19.5519 20.2421 18.8091 19.764 18.4932 19.0724C18.1005 18.2784 18.3054 17.2453 18.9714 16.6647C19.3129 16.3573 19.7654 16.1524 20.2264 16.1353C22.6512 16.1183 25.0675 16.1268 27.4922 16.1268C28.2863 16.1012 29.0547 16.5964 29.3706 17.3221C29.6438 17.8856 29.5584 18.526 29.5243 19.1322C29.3108 21.7619 28.124 24.2976 26.2457 26.1589C24.4442 27.9689 22.0109 29.1386 19.4666 29.3948C16.9649 29.668 14.3779 29.0618 12.252 27.7043C10.109 26.3467 8.43554 24.2379 7.61589 21.8302C6.77917 19.3968 6.82186 16.6732 7.69273 14.257C8.54653 11.8664 10.2541 9.80019 12.4313 8.49389Z" fill="white" stroke="#002CB8" stroke-width="0.00800432"/>
<path d="M61.7121 7.04229C63.4709 6.84592 65.2809 6.99107 66.9544 7.57165C68.9522 8.26322 70.7623 9.5183 72.0259 11.2173C72.2991 11.5333 72.4272 12.0028 72.2393 12.3956C72.0174 12.9079 71.4282 13.0701 70.9928 13.3604C70.4976 13.608 70.0195 14.0861 69.4133 13.941C68.9437 13.8812 68.7132 13.4287 68.4229 13.1042C67.3044 11.8662 65.6993 11.1149 64.0429 10.9441C62.7281 10.8161 61.3705 10.9612 60.1411 11.4735C58.6982 12.0797 57.4943 13.1982 56.743 14.5642C56.0002 15.9218 55.7611 17.5098 55.9063 19.0381C56.0087 20.2505 56.4185 21.4458 57.1272 22.4447C58.1005 23.8194 59.552 24.8525 61.1912 25.2879C62.3524 25.5782 63.5904 25.6806 64.7686 25.3818C66.2628 25.0232 67.6886 24.2804 68.7473 23.1449C69.4987 22.3423 70.0109 21.3177 70.2244 20.242C70.2329 20.1993 70.25 20.1054 70.2585 20.0627C68.1753 20.0712 66.092 20.0627 64.0173 20.0712C63.5648 19.9858 63.172 19.5931 63.1464 19.1235C63.1208 18.6966 63.1464 18.2697 63.1379 17.8428C63.1379 17.5354 63.1037 17.1939 63.283 16.9207C63.488 16.5706 63.8892 16.3828 64.282 16.4084C67.1337 16.4084 69.9853 16.4084 72.837 16.4084C73.5969 16.3828 74.2714 17.0829 74.2116 17.8428C74.1775 18.9186 74.2031 20.02 73.9384 21.0701C73.6225 22.4106 73.0846 23.6998 72.3162 24.8439C71.6758 25.8087 70.8135 26.6027 69.8658 27.2602C68.6278 28.1054 67.2446 28.7287 65.7932 29.0873C63.8465 29.5825 61.7804 29.4629 59.8508 28.9421C57.1955 28.2164 54.8817 26.4149 53.4388 24.084C51.8849 21.591 51.5007 18.4831 52.0983 15.64C52.6789 12.8396 54.4804 10.3636 56.8454 8.7755C58.2883 7.81071 59.9789 7.23013 61.7121 7.04229Z" fill="white"/>
<path d="M86.6005 7.01681C88.1544 6.87166 89.751 6.98266 91.2451 7.45225C93.5162 8.15236 95.591 9.61235 96.9058 11.6102C97.1619 11.9859 97.0424 12.5665 96.6411 12.797C96.0776 13.1385 95.4885 13.463 94.9165 13.8045C94.6603 13.9496 94.3956 14.1375 94.0883 14.0948C93.798 14.0862 93.5675 13.8813 93.4138 13.6508C92.5088 12.3018 91.0317 11.3882 89.4607 11.0553C88.18 10.7991 86.831 10.8589 85.5759 11.2089C84.1843 11.6017 82.9463 12.464 82.0839 13.6081C81.2557 14.6753 80.7862 15.9902 80.6752 17.3306C80.53 18.8589 80.752 20.4555 81.4863 21.8216C82.1949 23.145 83.3305 24.2378 84.7051 24.8355C85.9858 25.399 87.4201 25.5442 88.7947 25.4075C90.4596 25.2282 92.0733 24.4257 93.132 23.1194C93.3369 22.8718 93.4735 22.5559 93.7468 22.3766C94.02 22.2058 94.3871 22.2314 94.6603 22.4022C95.3092 22.7779 95.9666 23.145 96.6155 23.5207C96.9485 23.7 97.1193 24.1269 97.0168 24.494C96.9143 24.7757 96.7094 25.0063 96.5387 25.2453C94.5493 27.8921 91.2366 29.4375 87.941 29.3948C85.371 29.4375 82.7499 28.6434 80.7435 27.0041C79.5738 26.0564 78.5834 24.8867 77.8747 23.5548C77.1319 22.1631 76.7306 20.6092 76.6367 19.0297C76.5257 17.3306 76.7306 15.5889 77.3368 13.9838C78.2248 11.6615 79.958 9.67211 82.1095 8.42557C83.4756 7.63154 85.0295 7.17049 86.6005 7.01681Z" fill="white"/>
<path d="M32.1368 9.61226C33.0162 9.38173 34.0152 9.83425 34.425 10.6454C36.6448 15.3412 36.6448 21.0275 34.425 25.7234C34.1432 26.2783 33.5797 26.6881 32.9564 26.7906C32.2307 26.9187 31.4538 26.6113 31.0013 26.0307C30.5317 25.4245 30.4463 24.5537 30.7878 23.8706C32.4442 20.2762 32.4186 15.9645 30.7451 12.3786C30.2414 11.2772 30.9586 9.8684 32.1368 9.61226Z" fill="#6FBAF7" stroke="#6FBAF7" stroke-width="0.00800432"/>
<path d="M105.495 11.6785C107.108 11.3541 108.85 11.448 110.336 12.1908C111.446 12.7372 112.385 13.6849 112.786 14.8717C112.837 14.1033 112.778 13.3263 112.812 12.5494C112.82 12.131 113.221 11.781 113.64 11.781C114.442 11.7724 115.236 11.7724 116.039 11.781C116.492 11.7724 116.893 12.1737 116.876 12.6348C116.876 17.6978 116.876 22.7608 116.876 27.8323C116.876 28.0543 116.884 28.2848 116.859 28.5153C116.799 28.9081 116.423 29.1984 116.03 29.1984C115.373 29.2069 114.724 29.1898 114.067 29.1984C113.845 29.1984 113.623 29.2155 113.418 29.1642C113.085 29.0703 112.829 28.7715 112.812 28.43C112.786 27.9091 112.82 27.3883 112.795 26.8761C112.351 27.2688 111.941 27.6957 111.454 28.0372C110.242 28.9422 108.748 29.4716 107.236 29.4716C105.571 29.4887 103.907 28.9679 102.566 27.9775C101.26 27.0297 100.278 25.6722 99.6974 24.1781C98.9973 22.3936 98.8521 20.4214 99.168 18.543C99.4669 16.7927 100.261 15.1022 101.516 13.8301C102.592 12.7372 104.001 11.9859 105.495 11.6785ZM107.185 15.1535C105.964 15.3328 104.846 16.0414 104.154 17.066C102.891 18.9016 102.839 21.4545 103.907 23.3926C104.487 24.4854 105.495 25.3819 106.707 25.7064C108.252 26.1503 110.02 25.7234 111.181 24.605C112.197 23.6658 112.718 22.2826 112.786 20.9166C112.889 19.3371 112.462 17.638 111.318 16.4939C110.267 15.4011 108.671 14.9144 107.185 15.1535Z" fill="white"/>
<path d="M125.704 11.5505C127.497 11.3882 129.393 11.6188 130.938 12.5921C132.321 13.4459 133.235 14.9571 133.431 16.5622C133.482 17.0318 133.072 17.4929 132.603 17.4758C131.86 17.4843 131.109 17.4758 130.375 17.4843C130.118 17.4929 129.845 17.4587 129.657 17.2794C129.393 17.066 129.376 16.7074 129.239 16.4171C128.983 15.8194 128.436 15.384 127.822 15.1876C127.173 14.9827 126.481 14.9742 125.815 15.0596C125.269 15.1364 124.705 15.3072 124.33 15.7341C123.92 16.1866 123.903 16.955 124.304 17.416C124.722 17.9027 125.346 18.1418 125.935 18.3552C127.617 18.9187 129.393 19.2175 130.981 20.0457C131.903 20.5238 132.757 21.224 133.226 22.1631C133.969 23.6402 133.841 25.5015 132.902 26.859C132.108 28.0372 130.818 28.78 129.469 29.1472C127.822 29.5911 126.046 29.5826 124.406 29.1216C123.151 28.763 121.965 28.097 121.085 27.1322C120.394 26.3809 119.898 25.4332 119.736 24.4171C119.651 23.939 120.069 23.4609 120.556 23.4609C121.384 23.4524 122.212 23.4609 123.032 23.4609C123.425 23.4438 123.792 23.7085 123.894 24.0842C124.022 24.5196 124.278 24.9209 124.628 25.2112C125.337 25.8088 126.302 26.0223 127.215 25.9625C127.924 25.9284 128.667 25.7832 129.222 25.3136C129.7 24.9123 129.879 24.161 129.538 23.6231C129.239 23.1706 128.71 22.9315 128.214 22.7266C126.78 22.1887 125.26 21.9411 123.826 21.4033C122.776 21.019 121.734 20.4897 120.983 19.6359C119.89 18.4064 119.659 16.5537 120.231 15.0425C120.71 13.7959 121.76 12.8482 122.946 12.2933C123.809 11.8749 124.757 11.6444 125.704 11.5505Z" fill="white"/>
<path opacity="0.75" d="M152.667 18.2527C152.787 19.0211 152.701 19.7981 152.727 20.575C152.727 22.94 152.727 25.2965 152.727 27.6615C152.727 27.9774 152.761 28.3018 152.676 28.6092C152.71 27.1578 152.684 25.6978 152.693 24.2463C152.684 22.2484 152.718 20.2506 152.667 18.2527Z" fill="#001966" stroke="#001966" stroke-width="0.00800432"/>
<path opacity="0.48" d="M148.68 19.1832C148.731 19.704 148.714 20.2249 148.714 20.7457C148.714 23.3412 148.722 25.9367 148.714 28.5323C148.628 28.1054 148.68 27.6699 148.671 27.2345C148.671 24.5536 148.663 21.8727 148.68 19.1832Z" fill="#000A2B" stroke="#000A2B" stroke-width="0.00800432"/>
<path opacity="0.27" d="M64.0176 20.0713C66.0923 20.0627 68.1756 20.0713 70.2588 20.0627C70.2503 20.1054 70.2332 20.1994 70.2247 20.242C70.0539 20.1481 69.8575 20.114 69.6697 20.114C67.9365 20.131 66.1948 20.1054 64.4616 20.131C64.3079 20.131 64.1627 20.0969 64.0176 20.0713Z" fill="#00030E" stroke="#00030E" stroke-width="0.00800432"/>
<path opacity="0.46" d="M16.9648 31.8622C17.8101 31.8793 18.6468 31.8793 19.4835 31.8707C18.6554 31.9646 17.8016 31.9646 16.9648 31.8622Z" fill="#001E3E" stroke="#001E3E" stroke-width="0.00800432"/>
</g>
<defs>
<clipPath id="clip0_2289_41633">
<rect width="153" height="36.3689" fill="white"/>
</clipPath>
</defs>
</svg>
