<svg width="123" height="36" viewBox="0 0 123 36" fill="none" xmlns="http://www.w3.org/2000/svg">
<mask id="mask0_2219_21568" style="mask-type:luminance" maskUnits="userSpaceOnUse" x="0" y="0" width="123" height="36">
<path d="M122.968 0.206055H0V35.5689H122.968V0.206055Z" fill="white"/>
</mask>
<g mask="url(#mask0_2219_21568)">
<path d="M27.1458 0.206055C24.3061 0.206055 21.4173 1.40088 19.5744 3.29453L20.6202 5.38625L20.1782 5.73963C18.2243 2.37068 14.6319 0.206055 10.8081 0.206055C4.83244 0.206055 0.000854684 5.43538 0.000854684 11.5616V24.7601C-0.00431681 24.8727 0.0140236 24.9851 0.0546982 25.0902C0.0953724 25.1953 0.157491 25.2908 0.2371 25.3705C0.31671 25.4503 0.412056 25.5126 0.517073 25.5534C0.62209 25.5943 0.734478 25.6129 0.847063 25.6079H5.18106C5.39119 25.6079 5.59273 25.5244 5.74131 25.3758C5.8899 25.2272 5.97338 25.0257 5.97338 24.8156V11.4618C5.97338 8.42402 7.81632 5.93454 10.9539 5.93454C13.8918 5.93454 15.9836 8.12452 15.9836 11.362V22.3198C15.9762 22.4283 15.9912 22.5371 16.0277 22.6395C16.0642 22.742 16.1214 22.8358 16.1957 22.9152C16.27 22.9946 16.3599 23.0578 16.4597 23.1009C16.5595 23.1441 16.6672 23.1662 16.7759 23.1659H20.9182C21.0269 23.1662 21.1345 23.1441 21.2344 23.1009C21.3342 23.0578 21.424 22.9946 21.4984 22.9152C21.5727 22.8358 21.6299 22.742 21.6664 22.6395C21.7029 22.5371 21.7179 22.4283 21.7105 22.3198V11.362C21.7105 8.12452 23.9021 5.93454 26.84 5.93454C29.9775 5.93454 31.7207 8.42402 31.7207 11.4618V24.8108C31.7306 25.0271 31.8246 25.2311 31.9827 25.3791C32.1407 25.5271 32.3504 25.6075 32.5669 25.6031H36.8454C36.9581 25.6083 37.0707 25.5899 37.1759 25.5491C37.2811 25.5084 37.3766 25.4462 37.4564 25.3664C37.5362 25.2866 37.5985 25.1911 37.6393 25.0858C37.68 24.9806 37.6984 24.8681 37.6932 24.7554V11.5616C37.6932 5.43538 33.0613 0.206055 27.1347 0.206055" fill="#133139"/>
<path d="M52.8003 20.5274C48.5219 20.5274 45.53 17.488 45.53 13.2048C45.53 8.87237 48.5171 5.78387 52.8003 5.78387C57.1344 5.78387 60.2229 8.87237 60.2229 13.2048C60.2229 17.4833 57.1344 20.5274 52.8003 20.5274ZM65.9007 0.703507H61.9596C61.851 0.695884 61.742 0.710731 61.6394 0.747122C61.5367 0.783512 61.4427 0.840662 61.3632 0.915015C61.2836 0.989359 61.2202 1.07931 61.177 1.17924C61.1338 1.27917 61.1116 1.38694 61.1118 1.49583V2.04412L62.5064 4.23568L62.1308 4.61282C59.8299 1.99975 56.5418 0.201172 52.7941 0.201172C45.7217 0.201172 39.895 5.97878 39.895 13.1952C39.9038 16.6137 41.2656 19.8897 43.6827 22.3071C46.0997 24.7244 49.3756 26.0866 52.7941 26.0959C56.5702 26.0959 59.8821 24.3099 62.183 21.6968L62.5 21.9615L61.1182 24.2593V24.7568C61.1171 24.8684 61.1383 24.9792 61.1806 25.0825C61.2228 25.1858 61.2852 25.2797 61.3642 25.3586C61.4431 25.4376 61.537 25.5 61.6403 25.5422C61.7436 25.5844 61.8543 25.6057 61.9659 25.6046H65.9007C66.0132 25.6095 66.1256 25.591 66.2306 25.5502C66.3356 25.5093 66.431 25.4469 66.5106 25.3672C66.5902 25.2874 66.6523 25.192 66.693 25.0869C66.7337 24.9818 66.752 24.8693 66.7468 24.7568V1.50058C66.7468 1.00301 66.3982 0.70826 65.9007 0.70826" fill="#133139"/>
<path d="M109.025 20.5274C104.746 20.5274 101.754 17.488 101.754 13.2048C101.754 8.87237 104.741 5.78387 109.025 5.78387C113.358 5.78387 116.447 8.87237 116.447 13.2048C116.447 17.4833 113.358 20.5274 109.025 20.5274ZM122.125 0.703507H118.19C118.082 0.695884 117.972 0.710731 117.87 0.747122C117.767 0.783512 117.673 0.840662 117.594 0.915015C117.514 0.989359 117.45 1.07931 117.408 1.17924C117.364 1.27917 117.342 1.38694 117.342 1.49583V2.04412L118.736 4.23568L118.361 4.61282C116.061 1.99975 112.772 0.201172 109.025 0.201172C101.952 0.201172 96.125 5.97878 96.125 13.1952C96.1342 16.6137 97.4955 19.8897 99.9134 22.3071C102.33 24.7244 105.606 26.0866 109.025 26.0959C112.801 26.0959 116.113 24.3099 118.413 21.6968L118.73 21.9615L117.336 24.2529V24.7505C117.335 24.8621 117.356 24.9728 117.398 25.0761C117.44 25.1794 117.503 25.2734 117.582 25.3523C117.661 25.4312 117.754 25.4937 117.858 25.5359C117.961 25.5781 118.072 25.5993 118.184 25.5982H122.119C122.231 25.6032 122.343 25.5847 122.449 25.5438C122.553 25.5029 122.649 25.4407 122.728 25.3609C122.808 25.2811 122.87 25.1856 122.911 25.0806C122.952 24.9754 122.969 24.8631 122.964 24.7505V1.50058C122.964 1.00301 122.616 0.70826 122.119 0.70826" fill="#133139"/>
<path d="M92.8491 0.703613H88.8162C88.1682 0.703613 87.8191 1.05223 87.8191 1.40086V13.5535C87.8191 17.3392 85.3284 19.9792 81.4936 19.9792C77.9582 19.9792 75.6668 17.3392 75.6668 13.5535V1.40086C75.6668 1.05223 75.1185 0.703613 74.7699 0.703613H70.4375C70.2565 0.715849 70.0863 0.793237 69.9581 0.921437C69.8298 1.04964 69.7525 1.21996 69.7402 1.40086V13.5043C69.7402 19.9792 74.8206 25.6079 81.4936 25.6079C84.5113 25.6076 87.4248 24.5086 89.6911 22.5162L89.9146 22.7191L88.1205 25.1594V26.1102C88.1205 28.5997 84.3857 29.9942 82.1939 29.9942H80.7994C80.3019 29.9942 79.9025 30.3428 79.9025 30.7865V34.7719C79.9025 35.1697 80.3019 35.5642 80.7994 35.5642H82.1939C88.8681 35.5642 93.7491 31.6787 93.7491 24.3576V1.40086C93.7491 1.05223 93.4008 0.703613 92.8524 0.703613" fill="#133139"/>
</g>
</svg>
