<svg width="99" height="36" viewBox="0 0 99 36" fill="none" xmlns="http://www.w3.org/2000/svg">
<path d="M99 20.6899V24.9296C98.4062 30.7424 93.1897 35.298 86.873 35.298C81.9997 35.298 77.7946 32.5961 75.8482 28.6857C76.3985 28.0246 77.0572 27.2407 77.7721 26.4064C78.9475 30.099 82.5743 32.8009 86.873 32.8009C92.1262 32.8009 96.3988 28.7713 96.3988 23.8219V21.7977C96.3988 16.8464 92.1262 12.8168 86.873 12.8168C84.785 12.8088 82.7487 13.4637 81.0603 14.6864C77.9556 16.9302 74.6057 20.7084 72.1296 24.1179V19.9747C72.7717 19.1759 73.4771 18.3417 74.237 17.5074C76.245 15.4652 78.439 13.6125 80.7908 11.9733V11.9751C82.1158 11.0404 84.6254 10.3142 86.873 10.3142C93.1897 10.3142 98.4062 14.8764 99 20.6899Z" fill="white"/>
<path d="M15.4995 21.2596H25.0364V30.3653C24.2185 31.1772 21.385 33.4936 15.5238 33.4936C8.55076 33.4936 2.65933 27.7453 2.65933 20.9487V20.2336C2.65933 13.4313 8.81083 7.68863 16.0889 7.68863C19.5361 7.68863 22.6578 8.2584 24.8379 9.27514V6.53968C22.4238 5.67009 19.3639 5.17665 16.0889 5.17665C7.36612 5.17665 0 12.0738 0 20.2336V20.9487C0 29.1084 7.1097 36 15.5238 36C23.9265 36 27.3026 31.7433 27.4393 31.5608L27.6957 31.2368V18.7476H15.4995V21.2596Z" fill="white"/>
<path d="M58.3669 10.3142C64.934 10.3142 70.3013 15.2432 70.5352 21.3825H70.5464V35.3632H67.8891V21.7978C67.8891 16.8464 63.6183 12.8131 58.3669 12.8131C53.1139 12.8131 48.8413 16.8464 48.8413 21.7978V23.8219C48.8413 28.7769 53.1139 32.8009 58.3669 32.8009C59.6565 32.8009 60.9009 32.5552 62.0612 32.0896V34.7524C60.8748 35.1118 59.6433 35.298 58.3669 35.298C51.6485 35.298 46.1838 30.153 46.1838 23.8219V21.7978C46.1838 15.4666 51.6485 10.3142 58.3669 10.3142Z" fill="white"/>
<path d="M81.5936 9.62706C80.9593 9.91756 80.3511 10.2602 79.7746 10.6568C79.7028 10.7059 79.6319 10.7547 79.5617 10.8035L79.3318 10.9636C79.1428 11.0955 78.9561 11.2259 78.764 11.3551V0H81.5936V9.62706Z" fill="white"/>
<path d="M77.3586 0V12.5729C76.3386 13.3382 75.3897 14.0849 74.5289 14.8279V0H77.3586Z" fill="white"/>
<path d="M83.6546 14.9526C84.6724 14.5226 85.7673 14.3034 86.873 14.3084C91.2541 14.3084 94.8192 17.6676 94.8192 21.7978V23.82C94.8192 27.9465 91.2541 31.3056 86.873 31.3056C82.898 31.3056 79.6043 28.5442 79.0242 24.9466C79.87 23.9802 80.7515 23.01 81.5768 22.1348V23.8219C81.5768 26.5703 83.9536 28.8123 86.873 28.8123C89.7887 28.8123 92.1637 26.5703 92.1637 23.8219V21.7978C92.1637 19.0493 89.7887 16.8092 86.873 16.8092C85.4497 16.8007 84.0804 17.3514 83.0627 18.3417C81.9305 19.2579 80.4315 20.8034 78.9232 22.4681V22.4402L77.7104 23.8293C75.1952 26.6933 72.9606 29.4864 72.8016 29.6912L72.8146 29.7061C72.5732 30.0022 72.3467 30.2889 72.1296 30.5683V26.4419C75.0399 22.8908 78.9568 18.5968 80.9443 16.7962L80.9536 16.8092C81.7179 16.0142 82.6368 15.3825 83.6546 14.9526Z" fill="white"/>
<path d="M47.0302 13.8143C47.6795 13.012 48.3212 12.3642 48.8545 11.8858C48.4239 11.6437 47.6399 11.2974 46.1838 10.8057L46.1164 10.7834C44.9924 10.4714 43.8306 10.3136 42.6637 10.3142C35.6083 10.3142 30.4861 15.15 30.4861 21.8015V35.3613H33.1361V21.8015C33.1361 16.5075 37.0587 12.8168 42.6617 12.8168C43.5731 12.8168 44.4677 12.9397 45.3285 13.1762C45.9455 13.3808 46.5886 13.6282 47.0302 13.8143Z" fill="white"/>
<path d="M58.3651 14.3084C53.9785 14.3084 50.4207 17.662 50.4207 21.7977V23.8219C50.4207 27.9464 53.9785 31.3056 58.3651 31.3056C59.6994 31.3056 60.9515 30.9872 62.0594 30.4342V27.5442C61.0339 28.3654 59.8005 28.803 58.3651 28.803C55.4457 28.803 53.0689 26.5685 53.0689 23.8219V21.7977C53.0689 19.0493 55.4457 16.8073 58.3651 16.8073C61.2808 16.8073 63.6558 19.0493 63.6558 21.7977V23.8219C63.6558 23.8971 63.6507 23.9751 63.6458 24.0518V24.0557L63.6408 24.1384H63.6501V29.3895L63.6558 29.3877V31.2833L63.6501 34.1547H63.6558V35.3632H66.3151V21.7977C66.3151 17.6639 62.7406 14.3084 58.3651 14.3084Z" fill="white"/>
<path d="M44.2862 17.0494C44.4995 17.1052 44.726 17.1686 44.9392 17.2356C45.2852 16.4574 45.6959 15.7093 46.167 14.9992C45.7178 14.8298 45.2631 14.7106 45.003 14.6436C44.2429 14.4196 43.4543 14.3066 42.6617 14.3084C38.1347 14.3084 34.7212 17.5298 34.7212 21.7996V35.3594H37.3712V21.7996C37.3712 18.9097 39.6056 16.8129 42.6617 16.8129C43.2045 16.8129 43.7303 16.8855 44.2374 17.0364L44.2862 17.0494Z" fill="white"/>
<path d="M20.8218 22.6766V22.6692H23.4829V29.721L23.0712 30.0953C22.8466 30.2908 20.7582 32.0263 15.5218 32.0263C9.38908 32.0263 4.21443 26.9595 4.21443 20.9468V20.2317C4.21443 14.2227 9.64915 9.15408 16.087 9.15408C19.8747 9.15408 22.7998 9.65497 24.8341 10.6512V13.5375L24.7387 13.6306C23.395 12.3588 20.3239 11.6567 16.087 11.6567C11.092 11.6567 6.87011 15.5821 6.87011 20.2317V20.9468C6.87011 25.5965 10.8356 29.5199 15.5218 29.5199C18.4618 29.5199 20.105 28.8924 20.8218 28.5218V25.386H15.4995V22.6766H20.8218Z" fill="white"/>
</svg>
